<svg xmlns="http://www.w3.org/2000/svg" viewBox="0 0 218.17 44.18"><defs><style>.cls-1{fill:#d6a3a7;}.cls-2{opacity:0.96;font-size:25px;fill:#5b6e74;font-family:BeyondWonderland, Beyond Wonderland;}</style></defs><g id="TEXT"><path class="cls-1" d="M21.25,25.74a71.62,71.62,0,0,0-8.79-.21,39.27,39.27,0,0,0-4.35.39A17.73,17.73,0,0,0,3.93,27l.19-.28a10,10,0,0,1-.69,3.48,19.23,19.23,0,0,1-1.54,3.16l-.56-.62a29.31,29.31,0,0,1,7.2-2.29A44.74,44.74,0,0,1,16,29.7a45.82,45.82,0,0,1,7.5.5c1.25.14,2.47.45,3.7.69s2.43.64,3.64.95l-.5.12a9.24,9.24,0,0,1,2.57-1.61,7.08,7.08,0,0,1,3-.56,6.55,6.55,0,0,1,2.94.82,8.78,8.78,0,0,1,1.26.82c.39.32.74.68,1.11,1l-.36-.15,83,.15,41.5.08h10.37c3.46,0,6.92.12,10.37.17l20.75.4-20.75.32c-3.46,0-6.91.14-10.37.14l-10.38,0-41.49-.08-83-.16h-.19l-.17-.16c-.34-.3-.66-.62-1-.91a7.35,7.35,0,0,0-1.12-.72,5.26,5.26,0,0,0-2.5-.7,6,6,0,0,0-2.57.48,8.12,8.12,0,0,0-2.25,1.4l-.21.19-.29-.07c-1.18-.31-2.36-.67-3.56-.93s-2.4-.54-3.62-.67A44,44,0,0,0,16,30.7a40.85,40.85,0,0,0-7.31.77,35.54,35.54,0,0,0-7,2.05L.38,34.1l.78-1.19a18.36,18.36,0,0,0,1.58-3,9.3,9.3,0,0,0,.76-3.21v-.21l.18-.08a17.89,17.89,0,0,1,4.35-1,40.91,40.91,0,0,1,4.42-.24A71.75,71.75,0,0,1,21.25,25.74Z"/><path class="cls-1" d="M24.43,18.84c-1.35-1.2-2.69-2.37-4.11-3.45-.69-.56-1.31-1.18-2-1.72s-1.39-1.09-2.11-1.59l.64-.06c-.89.89-1.79,1.73-2.74,2.53A15.59,15.59,0,0,1,11,16.71l-.14-1a17.21,17.21,0,0,1,3.34,1c1.07.41,2.09.91,3.11,1.42A42.21,42.21,0,0,1,23,21.84a55.58,55.58,0,0,1,5.16,4.41,40.68,40.68,0,0,1,4.29,5.24C31.59,30.74,30.77,30,30,29.2A31.3,31.3,0,0,1,27.46,27a54.91,54.91,0,0,0-5.07-4.33,40.54,40.54,0,0,0-5.59-3.59,31.18,31.18,0,0,0-3-1.38,16.88,16.88,0,0,0-3.11-.92l-1.55-.26,1.4-.69a14.57,14.57,0,0,0,2.91-2c.93-.78,1.82-1.62,2.67-2.47l.3-.3.34.24c.75.51,1.48,1.06,2.18,1.63.35.29.7.57,1,.87a10.79,10.79,0,0,1,1,.91A45.7,45.7,0,0,1,24.43,18.84Z"/><path class="cls-1" d="M32.69,14.38c-.46-1.46-.93-2.9-1.49-4.3-.13-.35-.29-.69-.42-1s-.23-.7-.37-1a5.89,5.89,0,0,0-1-1.78l.52.11a21.36,21.36,0,0,1-3.63.89,24.33,24.33,0,0,1-3.72.28l.26-.93a17.64,17.64,0,0,1,4.48,5.23,41.07,41.07,0,0,1,3,6.05c.45,1,.8,2.1,1.2,3.15s.69,2.14,1,3.21a43.61,43.61,0,0,1,1.17,6.63c-.38-1.06-.73-2.12-1.08-3.18a28.53,28.53,0,0,1-1.05-3.16c-.32-1.06-.66-2.12-1-3.17s-.73-2.09-1.17-3.1a41.18,41.18,0,0,0-2.94-5.91,26.43,26.43,0,0,0-1.88-2.69,12.27,12.27,0,0,0-2.25-2.2l-1.39-.94h1.65a22.12,22.12,0,0,0,3.54-.27,19.64,19.64,0,0,0,3.44-.84l.31-.11.21.22a6.6,6.6,0,0,1,1.27,2.11c.14.37.3.73.42,1.1A8.73,8.73,0,0,1,32,9.83,39.27,39.27,0,0,1,32.69,14.38Z"/><path class="cls-1" d="M43.87,9.14a10.13,10.13,0,0,1-3.07-.47l-.75-.27A4.72,4.72,0,0,1,39.37,8,8.1,8.1,0,0,1,38.1,7l.81-.56a13.11,13.11,0,0,1,.72,3.1,26.87,26.87,0,0,1,.19,3.1,35.1,35.1,0,0,1-.58,6.15,51,51,0,0,1-1.43,6l-.47,1.46c-.09.24-.14.5-.24.73l-.34.7c-.48.91-.95,1.82-1.46,2.71a51.43,51.43,0,0,1,1.56-5.89,53.68,53.68,0,0,0,1.4-5.86,34.39,34.39,0,0,0,.56-6,24.54,24.54,0,0,0-.18-3A13.15,13.15,0,0,0,38,6.83l-.76-2L38.8,6.27a7.8,7.8,0,0,0,1.11.88c.42.23.81.51,1.23.77A12,12,0,0,0,43.87,9.14Z"/><path class="cls-1" d="M50.57,10.42a13.18,13.18,0,0,1-.2,3.07,29.06,29.06,0,0,1-1.07,2.87,38.4,38.4,0,0,1-2.89,5.36,45.44,45.44,0,0,1-3.65,4.87c-.64.78-1.36,1.5-2,2.25-.83.6-1.65,1.21-2.5,1.77.57-.85,1.2-1.64,1.78-2.46s1.36-1.45,2-2.21a46.88,46.88,0,0,0,3.57-4.76A36.94,36.94,0,0,0,48.38,16a24.74,24.74,0,0,0,1-2.76A26.23,26.23,0,0,0,50.57,10.42Z"/><text class="cls-2" transform="translate(56.51 31.49)">Bound Together</text></g></svg>