<svg id="Layer_1" data-name="Layer 1" xmlns="http://www.w3.org/2000/svg" viewBox="0 0 600 102.14"><defs><style>.cls-1{fill:#5b6e74;}</style></defs><path class="cls-1" d="M39.06,79.06h5.27a.63.63,0,1,0,0-1.25H39.06a.63.63,0,1,0,0,1.25Zm2.63,46.26a2.75,2.75,0,1,0,2.75,2.75A2.75,2.75,0,0,0,41.69,125.32ZM28.23,123H55.17V83.12H28.23Zm86.37-13.08a5.33,5.33,0,0,0-3.47,1.27,5.91,5.91,0,0,0-2,3.34,6.89,6.89,0,0,0-.24,1.59V120a6.21,6.21,0,0,0,1.56,4.3,5.2,5.2,0,0,0,4,1.74,5.33,5.33,0,0,0,4.56-2.25,10,10,0,0,0,1.62-6,9.54,9.54,0,0,0-1.53-5.6A5.32,5.32,0,0,0,114.6,109.88Zm94.47-.32a5.18,5.18,0,0,0-4.74,2.77,10.42,10.42,0,0,0-1.39,5.59,10.29,10.29,0,0,0,1.39,5.5,5.23,5.23,0,0,0,4.7,2.77,5.16,5.16,0,0,0,4.64-2.83,10.22,10.22,0,0,0,1.45-5.53,10.45,10.45,0,0,0-1.39-5.5A5.14,5.14,0,0,0,209.07,109.56Zm-68.86.32a5.33,5.33,0,0,0-3.47,1.27,6,6,0,0,0-2.05,3.34,6.79,6.79,0,0,0-.23,1.59V120a6.21,6.21,0,0,0,1.56,4.3,5.2,5.2,0,0,0,4,1.74,5.29,5.29,0,0,0,4.56-2.25,9.94,9.94,0,0,0,1.64-6,9.68,9.68,0,0,0-1.53-5.6A5.36,5.36,0,0,0,140.21,109.88Zm-53.52-8.34H86.6c-.32,1.38-.83,3.4-1.54,6.09l-2.68,8.45h8.67l-2.72-8.45Q87.9,106.34,86.69,101.54Zm161.66,7.77a5,5,0,0,0-4.13,2.12,7.72,7.72,0,0,0-1.53,4h10.79a7.06,7.06,0,0,0-1-4A4.56,4.56,0,0,0,248.35,109.31Zm-138.82-23a2,2,0,0,0,.08-.67V84c-2.15,0-4.19.42-4.19,2.24A1.59,1.59,0,0,0,107.14,88,2.49,2.49,0,0,0,109.53,86.31ZM81.27,78.76c-.32-1-.59-2.14-.84-3.1h-.05c-.24,1-.51,2.12-.79,3.1l-1.28,4.09h4.27Zm171.86-1.18c3.89,0,5.18,3.2,5.18,5.84a7.3,7.3,0,0,1-.1,1.28h-8c.08,2.17,1.75,3.11,3.7,3.11a9.74,9.74,0,0,0,3.33-.54l.44,2.07a10.85,10.85,0,0,1-4.19.76c-3.89,0-6.19-2.39-6.19-6.06C247.26,80.71,249.28,77.58,253.13,77.58ZM205,77.85l.15,1.8h.07a4.4,4.4,0,0,1,3.85-2.07c2.09,0,4.26,1.35,4.26,5.15v7.12h-3V83.08c0-1.73-.64-3-2.29-3a2.55,2.55,0,0,0-2.37,1.78,2.8,2.8,0,0,0-.15,1v7.07h-3V81.43c0-1.39,0-2.54-.1-3.58Zm-31.84-.27c3.89,0,5.18,3.2,5.18,5.84a7.3,7.3,0,0,1-.1,1.28h-8c.08,2.17,1.75,3.11,3.7,3.11a9.74,9.74,0,0,0,3.33-.54l.44,2.07a10.82,10.82,0,0,1-4.19.76c-3.89,0-6.19-2.39-6.19-6.06C167.31,80.71,169.33,77.58,173.18,77.58Zm-12.43-5.23h3v17.5h-3Zm-24,7.37a6.34,6.34,0,0,0-3.23.89l-.59-2a8.68,8.68,0,0,1,4.34-1.06c3.84,0,5,2.44,5,5.08V87a15.82,15.82,0,0,0,.2,2.88h-2.74l-.22-1.33h-.07a4.39,4.39,0,0,1-3.55,1.61A3.56,3.56,0,0,1,132,86.55c0-3,2.68-4.56,7.12-4.53v-.2C139.15,81,138.83,79.72,136.71,79.72Zm-17.93-6.87a1.64,1.64,0,1,1-1.7,1.65A1.61,1.61,0,0,1,118.78,72.85Zm1.51,5v12h-3v-12Zm-41.7-4.61h3.87l5.39,16.61H84.57l-1.5-4.7H77.82l-1.43,4.7H73.26Zm-20.2,55.09a5.3,5.3,0,0,1-5.31,5.3H30.32a5.31,5.31,0,0,1-5.32-5.3V77.74a5.32,5.32,0,0,1,5.32-5.31H53.08a5.31,5.31,0,0,1,5.31,5.31ZM95,129.55l-3-9.49H81.47l-2.88,9.49H73.22l10.4-32.32h6.43l10.46,32.32Zm1.18-39.7h-3l-4.46-12H92l2,6.09c.34,1.06.59,2,.81,3h.08c.22-1,.49-1.93.81-3l1.92-6.09h3.18Zm6.24-3.3c0-3,2.69-4.56,7.12-4.53v-.2c0-.79-.32-2.1-2.44-2.1a6.37,6.37,0,0,0-3.23.89l-.59-2a8.68,8.68,0,0,1,4.34-1.06c3.84,0,5,2.44,5,5.08V87a15.92,15.92,0,0,0,.19,2.88H110l-.22-1.33h-.07a4.37,4.37,0,0,1-3.55,1.61A3.56,3.56,0,0,1,102.41,86.55ZM122.69,127a9.5,9.5,0,0,1-7.19,3.06c-3.09,0-5.3-1.1-6.65-3.31V139h-5.17V113.9q0-3.74-.2-7.66H108l.29,3.69h.09a9.24,9.24,0,0,1,14.76-.9,12.86,12.86,0,0,1,2.75,8.58C125.92,121.59,124.85,124.71,122.69,127Zm5.39-37.16h-3V72.35h3ZM148.29,127a9.48,9.48,0,0,1-7.18,3.06c-3.09,0-5.3-1.1-6.65-3.31V139h-5.18V113.9c0-2.49-.07-5-.19-7.66h4.54l.3,3.69H134a9.23,9.23,0,0,1,14.75-.9,12.82,12.82,0,0,1,2.76,8.58C151.53,121.59,150.45,124.71,148.29,127Zm3.56-36.88a4.14,4.14,0,0,1-3.8-2.07H148l-.14,1.79h-2.59c0-.81.1-2.14.1-3.37V72.35h3V79.5h0a4.33,4.33,0,0,1,3.84-1.92c2.94,0,5,2.44,5,6.09C157.3,88,154.56,90.13,151.85,90.13Zm26.07,37.06c-2.12,1.89-5,2.83-8.81,2.83a15.45,15.45,0,0,1-8.38-2l1.21-4.31a14.52,14.52,0,0,0,7.47,2,7.12,7.12,0,0,0,4.56-1.32,4.31,4.31,0,0,0,1.63-3.54,4.51,4.51,0,0,0-1.34-3.29,12.75,12.75,0,0,0-4.46-2.5c-5.65-2.1-8.49-5.19-8.49-9.25a8.15,8.15,0,0,1,3-6.52,11.9,11.9,0,0,1,7.94-2.54,15.75,15.75,0,0,1,7.34,1.53l-1.3,4.22a12.84,12.84,0,0,0-6.21-1.49,6.45,6.45,0,0,0-4.28,1.34,3.9,3.9,0,0,0-1.3,2.93,4,4,0,0,0,1.49,3.18,16.91,16.91,0,0,0,4.69,2.48,15.78,15.78,0,0,1,6.15,3.94,8.21,8.21,0,0,1,2,5.6A8.63,8.63,0,0,1,177.92,127.19Zm18.26-17.07h-5.72v11.33q0,4.3,3,4.3a9.27,9.27,0,0,0,2.3-.23l.15,3.93a11.85,11.85,0,0,1-4,.57,6.14,6.14,0,0,1-4.79-1.87c-1.17-1.24-1.74-3.33-1.74-6.27V110.12H182v-3.88h3.4V102l5.08-1.53v5.8h5.72Zm-2.93-20a5.81,5.81,0,0,1-6-6.19c0-4,2.59-6.36,6.21-6.36s6,2.51,6,6.16C199.42,88.15,196.31,90.13,193.25,90.13Zm24.17,36.4a11,11,0,0,1-8.53,3.54,10.44,10.44,0,0,1-8.19-3.4,12.39,12.39,0,0,1-3-8.58,12.69,12.69,0,0,1,3.14-8.87,10.85,10.85,0,0,1,8.46-3.45,10.6,10.6,0,0,1,8.26,3.41,12.28,12.28,0,0,1,3,8.52A12.76,12.76,0,0,1,217.42,126.53Zm5.35-48.68h1.71V75.61l3-.84v3.08h2.88v2.27h-2.88v5.3c0,1.48.39,2.22,1.55,2.22a4,4,0,0,0,1.19-.13l0,2.3a6.66,6.66,0,0,1-2.19.32,3.45,3.45,0,0,1-2.61-1,4.71,4.71,0,0,1-1-3.38V80.12h-1.71Zm13.3,32.94a9.45,9.45,0,0,0-1.63-.13,4.9,4.9,0,0,0-4.22,2.06,7.68,7.68,0,0,0-1.3,4.6v12.23h-5.17v-16c0-2.67-.05-5.12-.14-7.33h4.5l.2,4.46h.14A7.81,7.81,0,0,1,231,107a6.21,6.21,0,0,1,3.74-1.25,8.33,8.33,0,0,1,1.29.09Zm.78-28.13v7.19h-3V72.35h3v7.13h.05a4,4,0,0,1,1.51-1.36,4.3,4.3,0,0,1,2.09-.54c2.05,0,4.2,1.35,4.2,5.2v7.07h-3V83.1c0-1.72-.64-3.06-2.31-3.06A2.52,2.52,0,0,0,237,81.75,2.67,2.67,0,0,0,236.85,82.66Zm21.38,36.49H242.69a6.7,6.7,0,0,0,2.26,5.26,7.66,7.66,0,0,0,5.08,1.64,17.08,17.08,0,0,0,6.28-1.11l.81,3.6A19.4,19.4,0,0,1,249.3,130c-3.6,0-6.44-1.05-8.5-3.18a11.77,11.77,0,0,1-3.1-8.56,13.37,13.37,0,0,1,2.88-8.78,10,10,0,0,1,8.15-3.74,8.67,8.67,0,0,1,7.63,3.74,12.65,12.65,0,0,1,2.06,7.35A13,13,0,0,1,258.23,119.15ZM151.18,80a2.8,2.8,0,0,0-2.68,2.21,3.7,3.7,0,0,0-.1.79v2a3.38,3.38,0,0,0,.07.72,2.76,2.76,0,0,0,2.69,2.11c1.9,0,3.06-1.5,3.06-3.94C154.22,81.67,153.2,80,151.18,80Zm21.83-.3a3,3,0,0,0-2.79,2.93h5.28C175.52,81.47,175,79.65,173,79.65Zm20.37.12c-2.15,0-3,2.1-3,4.09,0,2.32,1.16,4.07,3,4.07s2.94-1.67,2.94-4.11C196.29,81.94,195.45,79.77,193.38,79.77ZM135,86.23A1.6,1.6,0,0,0,136.76,88a2.5,2.5,0,0,0,2.39-1.65,2.22,2.22,0,0,0,.07-.67V84C137.08,84,135,84.41,135,86.23ZM253,79.65a3,3,0,0,0-2.79,2.93h5.28C255.47,81.47,255,79.65,253,79.65Z" transform="translate(-0.57 -51.07)"/><path class="cls-1" d="M269.31,153.21H14.1A13.54,13.54,0,0,1,.57,139.7V66.36A13.55,13.55,0,0,1,14.1,52.82H269.31a13.55,13.55,0,0,1,13.54,13.54V139.7A13.54,13.54,0,0,1,269.31,153.21ZM14.1,56.33a10,10,0,0,0-10,10V139.7a10,10,0,0,0,10,10H269.31a10,10,0,0,0,10-10V66.36a10,10,0,0,0-10-10Z" transform="translate(-0.57 -51.07)"/><path class="cls-1" d="M585.74,151.38H316a14.85,14.85,0,0,1-14.83-14.84V65.9A14.85,14.85,0,0,1,316,51.07H585.74A14.85,14.85,0,0,1,600.57,65.9v70.64A14.85,14.85,0,0,1,585.74,151.38ZM316,54.58A11.34,11.34,0,0,0,304.65,65.9v70.64A11.34,11.34,0,0,0,316,147.87H585.74a11.34,11.34,0,0,0,11.33-11.33V65.9a11.34,11.34,0,0,0-11.33-11.32Z" transform="translate(-0.57 -51.07)"/><path class="cls-1" d="M400.65,80.35h-2a13.22,13.22,0,0,0-.57-2.33h-2.87a11.8,11.8,0,0,0-.58,2.33h-1.87a42.11,42.11,0,0,1,1.45-4,30.84,30.84,0,0,0,1.45-4.11H398a35.88,35.88,0,0,0,1.31,4A35.12,35.12,0,0,1,400.65,80.35Zm-2.87-3.51c-.71-2.14-1.07-3.3-1.07-3.47h-.1a34.37,34.37,0,0,1-1.1,3.47Z" transform="translate(-0.57 -51.07)"/><path class="cls-1" d="M408.66,80.35h-1.53a15,15,0,0,0-1.71-2.69,14.37,14.37,0,0,1-2-3.51h-.1a22.62,22.62,0,0,1,.16,2.46c0,1,0,2.27.08,3.74H402c.07-1.29.1-2.7.1-4.23s0-2.8-.1-3.86h1.85a11.87,11.87,0,0,0,1.53,2.63,15.25,15.25,0,0,1,1.88,3.31h.09a23.19,23.19,0,0,1-.14-2.49q0-1.68-.09-3.45h1.55c-.06,1-.08,2.31-.08,3.86S408.6,79.08,408.66,80.35Z" transform="translate(-0.57 -51.07)"/><path class="cls-1" d="M417.67,76a4.62,4.62,0,0,1-1.13,3.09,4,4,0,0,1-3.17,1.31c-.61,0-1.46,0-2.54-.07.06-1.25.08-2.66.08-4.23s0-2.8-.08-3.86h1.09l.8,0,.69,0a4.17,4.17,0,0,1,3.25,1.12A3.87,3.87,0,0,1,417.67,76Zm-1.7.27a3,3,0,0,0-.69-2,2.65,2.65,0,0,0-2.13-.82,6,6,0,0,0-.73.06c0,.83.06,1.69.06,2.6s0,2,.06,2.94a3.71,3.71,0,0,0,.81.08,2.33,2.33,0,0,0,2-.83A3.17,3.17,0,0,0,416,76.29Z" transform="translate(-0.57 -51.07)"/><path class="cls-1" d="M426,80.35h-1.84A12.08,12.08,0,0,0,423,77.63a1.46,1.46,0,0,0-1.24-.51h-.69c0,1.07,0,2.14,0,3.23h-1.72c.05-1.25.08-2.66.08-4.23s0-2.8-.08-3.86h1.07l.78,0,1.1,0q2.85,0,2.85,2a2.19,2.19,0,0,1-1.63,2.16v.09a1.93,1.93,0,0,1,1.1,1A21.64,21.64,0,0,1,426,80.35Zm-2.33-5.72c0-.82-.53-1.24-1.6-1.24a5.34,5.34,0,0,0-1,.09c.05.64.07,1.48.07,2.51h.58C423,76,423.65,75.55,423.65,74.63Z" transform="translate(-0.57 -51.07)"/><path class="cls-1" d="M434.89,76.15a4.47,4.47,0,0,1-1.17,3.17,3.82,3.82,0,0,1-2.89,1.25,3.65,3.65,0,0,1-2.75-1.15A4.06,4.06,0,0,1,427,76.49a4.44,4.44,0,0,1,1.17-3.16A3.78,3.78,0,0,1,431,72.07a3.65,3.65,0,0,1,2.75,1.15A4,4,0,0,1,434.89,76.15Zm-1.72.18a3.17,3.17,0,0,0-.67-2.1,2,2,0,0,0-1.64-.81,1.91,1.91,0,0,0-1.54.81,3.28,3.28,0,0,0-.63,2.06,3.17,3.17,0,0,0,.67,2.1,2,2,0,0,0,1.63.81,1.92,1.92,0,0,0,1.55-.81A3.28,3.28,0,0,0,433.17,76.33Z" transform="translate(-0.57 -51.07)"/><path class="cls-1" d="M438.4,80.35h-1.76c.05-1.29.08-2.7.08-4.23s0-2.8-.08-3.86h1.76c0,1-.08,2.33-.08,3.86S438.35,79.09,438.4,80.35Z" transform="translate(-0.57 -51.07)"/><path class="cls-1" d="M447.41,76a4.62,4.62,0,0,1-1.13,3.09,4,4,0,0,1-3.17,1.31c-.62,0-1.46,0-2.54-.07.05-1.25.08-2.66.08-4.23s0-2.8-.08-3.86h1.09l.79,0,.69,0a4.19,4.19,0,0,1,3.26,1.12A3.87,3.87,0,0,1,447.41,76Zm-1.7.27a3,3,0,0,0-.7-2,2.61,2.61,0,0,0-2.12-.82,6,6,0,0,0-.73.06c0,.83.06,1.69.06,2.6s0,2,.06,2.94a3.71,3.71,0,0,0,.81.08,2.33,2.33,0,0,0,2-.83A3.17,3.17,0,0,0,445.71,76.29Z" transform="translate(-0.57 -51.07)"/><path class="cls-1" d="M459.36,80.35h-2A13.22,13.22,0,0,0,456.8,78h-2.87a11.8,11.8,0,0,0-.58,2.33h-1.87a42.11,42.11,0,0,1,1.45-4,30.84,30.84,0,0,0,1.45-4.11h2.35a35.88,35.88,0,0,0,1.31,4A35.12,35.12,0,0,1,459.36,80.35Zm-2.87-3.51c-.71-2.14-1.07-3.3-1.07-3.47h-.1a34.37,34.37,0,0,1-1.1,3.47Z" transform="translate(-0.57 -51.07)"/><path class="cls-1" d="M466.61,74.38a2.41,2.41,0,0,1-1.11,2.19,4.89,4.89,0,0,1-2.7.71h-.42c0,.77,0,1.8.07,3.08H460.7c.06-1.2.08-2.61.08-4.23s0-2.78-.08-3.86h1.09l.88,0,1.13,0a3.58,3.58,0,0,1,2,.53A1.81,1.81,0,0,1,466.61,74.38Zm-1.61.34c0-.89-.58-1.33-1.76-1.33a5.13,5.13,0,0,0-.93.09c0,.78.07,1.67.07,2.66h.36C464.25,76.15,465,75.67,465,74.72Z" transform="translate(-0.57 -51.07)"/><path class="cls-1" d="M474.06,74.38a2.42,2.42,0,0,1-1.1,2.19,5,5,0,0,1-2.71.71h-.41c0,.77,0,1.8.06,3.08h-1.74c0-1.2.08-2.61.08-4.23s0-2.78-.08-3.86h1.08l.88,0,1.13,0a3.64,3.64,0,0,1,2,.53A1.82,1.82,0,0,1,474.06,74.38Zm-1.6.34c0-.89-.59-1.33-1.77-1.33a5.21,5.21,0,0,0-.93.09c.05.78.07,1.67.07,2.66h.36C471.7,76.15,472.46,75.67,472.46,74.72Z" transform="translate(-0.57 -51.07)"/><path class="cls-1" d="M486.25,76.15a4.47,4.47,0,0,1-1.17,3.17,3.81,3.81,0,0,1-2.89,1.25,3.66,3.66,0,0,1-2.75-1.15,4.1,4.1,0,0,1-1.1-2.93,4.44,4.44,0,0,1,1.17-3.16,3.77,3.77,0,0,1,2.89-1.26,3.62,3.62,0,0,1,2.74,1.15A4,4,0,0,1,486.25,76.15Zm-1.72.18a3.22,3.22,0,0,0-.66-2.1,2,2,0,0,0-1.64-.81,1.89,1.89,0,0,0-1.54.81,3.63,3.63,0,0,0,0,4.16,2.05,2.05,0,0,0,1.64.81,1.9,1.9,0,0,0,1.54-.81A3.28,3.28,0,0,0,484.53,76.33Z" transform="translate(-0.57 -51.07)"/><path class="cls-1" d="M494.67,80.35h-1.53a15,15,0,0,0-1.71-2.69,15.11,15.11,0,0,1-2-3.51h-.1a22.62,22.62,0,0,1,.16,2.46c0,1,0,2.27.08,3.74H488c.07-1.29.1-2.7.1-4.23s0-2.8-.1-3.86h1.85a11.69,11.69,0,0,0,1.54,2.63,15.05,15.05,0,0,1,1.87,3.31h.1a23.4,23.4,0,0,1-.15-2.49q0-1.68-.09-3.45h1.55c-.05,1-.08,2.31-.08,3.86S494.62,79.08,494.67,80.35Z" transform="translate(-0.57 -51.07)"/><path class="cls-1" d="M421.35,106.27q0,6-3.57,9.6a13.92,13.92,0,0,1-10.56,4.26,15.1,15.1,0,0,1-10.58-25.72,14.46,14.46,0,0,1,10.58-4.32,14.86,14.86,0,0,1,5.9,1.2,11.91,11.91,0,0,1,4.5,3.22L415.09,97a9.7,9.7,0,0,0-7.87-3.42,11.65,11.65,0,0,0-7.85,19.78,11.42,11.42,0,0,0,15.88,0,9.05,9.05,0,0,0,2.41-5.82H407.22v-3.45h13.93A11.73,11.73,0,0,1,421.35,106.27Z" transform="translate(-0.57 -51.07)"/><path class="cls-1" d="M425.73,102.16a10.33,10.33,0,0,1,14.54,0,11.27,11.27,0,0,1,0,15,10.33,10.33,0,0,1-14.54,0,11.27,11.27,0,0,1,0-15Zm2.75,12.65a6.21,6.21,0,0,0,9,0,7.93,7.93,0,0,0,0-10.32,6.21,6.21,0,0,0-9,0,8,8,0,0,0,0,10.32Z" transform="translate(-0.57 -51.07)"/><path class="cls-1" d="M447.22,102.16a10.33,10.33,0,0,1,14.54,0,11.27,11.27,0,0,1,0,15,10.33,10.33,0,0,1-14.54,0,11.27,11.27,0,0,1,0-15ZM450,114.81a6.21,6.21,0,0,0,9,0,7.93,7.93,0,0,0,0-10.32,6.21,6.21,0,0,0-9,0,7.93,7.93,0,0,0,0,10.32Z" transform="translate(-0.57 -51.07)"/><path class="cls-1" d="M475.54,128.81a8.94,8.94,0,0,1-5.71-1.75,10.3,10.3,0,0,1-3.17-4l3.37-1.4a5.62,5.62,0,0,0,2.07,2.69,5.74,5.74,0,0,0,3.44,1.08,6.3,6.3,0,0,0,4.79-1.83,6.84,6.84,0,0,0,1.75-5v-1.88h-.16a7.59,7.59,0,0,1-2.73,2.41,8.22,8.22,0,0,1-4,1,8.63,8.63,0,0,1-6.58-3,11.43,11.43,0,0,1,0-14.94,8.63,8.63,0,0,1,6.58-3,8.22,8.22,0,0,1,4,1,7.41,7.41,0,0,1,2.73,2.41h.16V99.81h3.54v18.67c0,3.38-1,5.94-2.94,7.7A10.31,10.31,0,0,1,475.54,128.81Zm.28-12a5.88,5.88,0,0,0,4.43-1.93,8.25,8.25,0,0,0,0-10.36,6,6,0,0,0-8.85,0,8.12,8.12,0,0,0,0,10.32A5.87,5.87,0,0,0,475.82,116.76Z" transform="translate(-0.57 -51.07)"/><path class="cls-1" d="M492.8,119.49h-3.69V90.73h3.69Z" transform="translate(-0.57 -51.07)"/><path class="cls-1" d="M505,120.13a9.5,9.5,0,0,1-7.25-3,10.55,10.55,0,0,1-2.79-7.51,10.81,10.81,0,0,1,2.71-7.39,8.81,8.81,0,0,1,6.93-3.09,9.09,9.09,0,0,1,7,2.85,10.82,10.82,0,0,1,2.63,7.63l0,.68H498.67a6.68,6.68,0,0,0,2,4.7,6.05,6.05,0,0,0,4.28,1.73,5.3,5.3,0,0,0,5.38-3.38l3.3,1.37a8.85,8.85,0,0,1-3.18,3.83A9.22,9.22,0,0,1,505,120.13Zm5.3-12.85a5.19,5.19,0,0,0-1.54-3.21,5.53,5.53,0,0,0-4.24-1.53,5.3,5.3,0,0,0-3.55,1.28,6.51,6.51,0,0,0-2.07,3.46Z" transform="translate(-0.57 -51.07)"/><path class="cls-1" d="M528.79,119.49h-3.7V90.73h9.8a9.09,9.09,0,0,1,6.33,2.43,8.36,8.36,0,0,1,0,12.25,9.09,9.09,0,0,1-6.33,2.43h-6.1Zm0-15.18H535a4.8,4.8,0,0,0,3.74-1.57,5,5,0,0,0,0-6.91A4.79,4.79,0,0,0,535,94.27h-6.18Z" transform="translate(-0.57 -51.07)"/><path class="cls-1" d="M550,119.49H546.3V90.73H550Z" transform="translate(-0.57 -51.07)"/><path class="cls-1" d="M559.51,120.13a7.75,7.75,0,0,1-5.24-1.81,6.4,6.4,0,0,1,.38-9.82,10.16,10.16,0,0,1,6.15-1.82,10.61,10.61,0,0,1,5.34,1.2v-.56a4.41,4.41,0,0,0-1.49-3.48,5.33,5.33,0,0,0-3.65-1.3,5.64,5.64,0,0,0-2.91.76,4,4,0,0,0-1.79,2.09l-3.38-1.45a7.78,7.78,0,0,1,2.7-3.27,8.61,8.61,0,0,1,5.3-1.5,9.1,9.1,0,0,1,6.26,2.2,7.9,7.9,0,0,1,2.49,6.23v11.89h-3.53v-2.73H566A7.24,7.24,0,0,1,559.51,120.13Zm.6-3.37a6,6,0,0,0,4.16-1.71,5.28,5.28,0,0,0,1.87-4,7.34,7.34,0,0,0-4.7-1.28,6.14,6.14,0,0,0-4.06,1.16,3.5,3.5,0,0,0-1.36,2.73,2.62,2.62,0,0,0,1.24,2.29A5,5,0,0,0,560.11,116.76Z" transform="translate(-0.57 -51.07)"/><path class="cls-1" d="M577.71,128.16h-3.82l4.58-9.92-8.11-18.43h4L580.24,114h.08L586,99.81h4Z" transform="translate(-0.57 -51.07)"/><path class="cls-1" d="M323.36,104.62q0-13.77,0-27.55a4.13,4.13,0,0,1,1-3c.31-.33.53-.42.92,0q9.27,9.45,18.56,18.89c4,4.07,8,8.15,12,12.21.39.39.43.6,0,1q-14.78,14.7-29.51,29.43a1,1,0,0,1-1.59.09,3.75,3.75,0,0,1-1.46-3.18q0-8.16,0-16.32V104.62Z" transform="translate(-0.57 -51.07)"/><path class="cls-1" d="M326.89,73a3.31,3.31,0,0,1,1.79.5q18.87,10.58,37.75,21.13c.57.33.56.51.11,1q-4.21,4.14-8.39,8.35c-.3.3-.48.47-.89.06q-15-15.31-30.05-30.59Z" transform="translate(-0.57 -51.07)"/><path class="cls-1" d="M329.7,135.34q13.69-13.84,27.38-27.71c.57-.57.83-.49,1.34,0,2.31,2.41,4.66,4.79,7,7.16.41.41.45.58-.12.89q-17.58,9.63-35.14,19.28A4.35,4.35,0,0,0,329.7,135.34Z" transform="translate(-0.57 -51.07)"/><path class="cls-1" d="M381.87,104.88a2.87,2.87,0,0,1-1.27,2.3,14.88,14.88,0,0,1-1.75,1.07c-3.54,2-7.1,3.9-10.63,5.87a.79.79,0,0,1-1.16-.15q-3.76-3.9-7.61-7.75c-.37-.37-.38-.57,0-1q4.47-4.39,8.88-8.84a.71.71,0,0,1,1-.14c3.5,2,7,3.94,10.53,5.91A3.22,3.22,0,0,1,381.87,104.88Z" transform="translate(-0.57 -51.07)"/></svg>